<svg id="Layer_1" data-name="Layer 1" xmlns="http://www.w3.org/2000/svg" viewBox="0 0 125.24 170.66"><defs><style>.cls-1{fill:#ebebeb;}.cls-2{font-size:25px;fill:#231f20;font-family:Kingthings-Organica, Kingthings Organica;}.cls-3{letter-spacing:0.02em;}</style></defs><title>rainbutton</title><path class="cls-1" d="M614.39,310.54A296.41,296.41,0,0,1,631,339.66c6.23,12.71,5.32,9.39,20.88,34.62C664.92,395.4,671.43,406,673,413c1.12,5.07,6.41,29.05-8,46.78-11.75,14.43-29.18,19.41-43.79,20.87-15.48,1.53-37.33.45-55-14.68-23-19.65-15.35-54.56-15.13-56.18,1-7.06,4.55-14.23,19-36,13.34-20,11.93-15.24,24.77-34.39C606.85,321.45,614.39,310.54,614.39,310.54Z" transform="translate(-549.61 -310.54)"/><text class="cls-2" transform="translate(18.44 110.77)">it’s <tspan class="cls-3" x="38.69" y="0">f</tspan><tspan x="47.43" y="0">ixin’ </tspan><tspan x="10.47" y="21">to rain</tspan></text></svg>