<svg xmlns="http://www.w3.org/2000/svg" viewBox="0 0 125.24 170.66"><defs><style>.cls-1{fill:#ebebeb;}.cls-2{font-size:25px;fill:#231f20;font-family:Kingthings-Organica, Kingthings Organica;}.cls-3{letter-spacing:0.02em;}</style></defs><title>rainbutton</title><g id="Layer_2" data-name="Layer 2"><g id="Layer_1-2" data-name="Layer 1"><path class="cls-1" d="M64.77,0A296.71,296.71,0,0,1,81.4,29.12c6.23,12.72,5.32,9.39,20.88,34.63,13,21.12,19.54,31.68,21.1,38.75,1.12,5.06,6.41,29.05-8,46.77-11.75,14.43-29.18,19.42-43.79,20.87-15.48,1.54-37.33.45-55-14.68-23-19.64-15.35-54.55-15.13-56.17,1-7.06,4.55-14.24,19-36,13.34-20,11.93-15.24,24.77-34.4C57.24,10.91,64.77,0,64.77,0Z"/><text class="cls-2" transform="translate(18.44 110.77)">it’s <tspan class="cls-3" x="38.69" y="0">f</tspan><tspan x="47.43" y="0">ixin’ </tspan><tspan x="10.47" y="21">to rain</tspan></text></g></g></svg>